# xmcd CD database file
#
# Track frame offsets:
#	150
#	14659
#	37995
#	51672
#	65611
#	78437
#	92230
#	103165
#	118314
#	130728
#	145454
#	159488
#	172116
#	185859
#	201712
#	215244
#	227165
#	242807
#	257101
#	272341
#	285871
#	300723
#	315357
#	329507
#	343267
#
# Disc length: 4735 seconds
#
# Revision: 1
# Processed by: cddbd v1.5PL3 Copyright (c) Steve Scherf et al.
# Submitted via: CDex 1.51
#
DISCID=91127d19
DTITLE=Hoagy Carmichael - First of the Singer-Songwriters, Key Tracks #3
DYEAR=2004
DGENRE=Jazz
TTITLE0=Paul Whiteman and His Orchestra  - Daybreak
TTITLE1=In The Still Of The Night 
TTITLE2=Rockin' Chair 
TTITLE3=After Twelve O'Clock 
TTITLE4=Sing It Way Down Low 
TTITLE5=The Casa Loma Orchestra  - Thanksgivin'
TTITLE6=The Boswell Sisters  - Charlie Two-Step
TTITLE7=Eddie South and His International Orchestra  - Old Man Harlem
TTITLE8=The Dorsey Brother Orchestra  - Old Man Harlem
TTITLE9=Louis Armstrong and His Orchestra  - Snowball
TTITLE10=Mildred Bailey/The Dorsey Brothers Orchestra  - Snowball
TTITLE11=Hoagy Carmichael  -   12. Snowball
TTITLE12=Hoagy Carmichael  - Lazy Bones
TTITLE13=The Casa Loma Orchestra  - Lazy Bones
TTITLE14=Mildred Bailey and The Dorsey Brothers Orchestra  - Lazy Bones
TTITLE15=Hoagy Carmichael and His Orchestra  - One Morning In May
TTITLE16=Hoagy Carmichael  - Star Dust
TTITLE17=Hoagy Carmichael  - Cosmics
TTITLE18=Hoagy Carmichael  - Washboard Blues
TTITLE19=Hoagy Carmichael and His Orchestra  - Judy
TTITLE20=New Mayfair Dance Orchestra  - One Morning In May
TTITLE21=Hoagy Carmichael and His Orchestra  - Moon Country (Is Home To Me)
TTITLE22=The Casa Loma Orchestra  - Moon Country (Is Home To Me)
TTITLE23=Nat Gonella and His Trumpet  - Moon Country (Is Home To Me)
TTITLE24=Frankie Trumbauer and His Orchestra  - Down T' Uncle Bill's
EXTD=YEAR: 2004
EXTT0=
EXTT1=
EXTT2=
EXTT3=
EXTT4=
EXTT5=
EXTT6=
EXTT7=
EXTT8=
EXTT9=
EXTT10=
EXTT11=
EXTT12=
EXTT13=
EXTT14=
EXTT15=
EXTT16=
EXTT17=
EXTT18=
EXTT19=
EXTT20=
EXTT21=
EXTT22=
EXTT23=
EXTT24=
PLAYORDER=
